<svg aria-roledescription="er" role="graphics-document document" viewBox="0 0 260.6305236816406 328" style="max-width: 260.631px; background-color: white;" xmlns:xlink="http://www.w3.org/1999/xlink" xmlns="http://www.w3.org/2000/svg" width="100%" id="mermaid-0"><style>#mermaid-0{font-family:"trebuchet ms",verdana,arial,sans-serif;font-size:16px;fill:#000000;}#mermaid-0 .error-icon{fill:#552222;}#mermaid-0 .error-text{fill:#552222;stroke:#552222;}#mermaid-0 .edge-thickness-normal{stroke-width:2px;}#mermaid-0 .edge-thickness-thick{stroke-width:3.5px;}#mermaid-0 .edge-pattern-solid{stroke-dasharray:0;}#mermaid-0 .edge-pattern-dashed{stroke-dasharray:3;}#mermaid-0 .edge-pattern-dotted{stroke-dasharray:2;}#mermaid-0 .marker{fill:#000000;stroke:#000000;}#mermaid-0 .marker.cross{stroke:#000000;}#mermaid-0 svg{font-family:"trebuchet ms",verdana,arial,sans-serif;font-size:16px;}#mermaid-0 .entityBox{fill:#cde498;stroke:#13540c;}#mermaid-0 .attributeBoxOdd{fill:#ffffff;stroke:#13540c;}#mermaid-0 .attributeBoxEven{fill:#f2f2f2;stroke:#13540c;}#mermaid-0 .relationshipLabelBox{fill:hsl(78.1578947368, 58.4615384615%, 84.5098039216%);opacity:0.7;background-color:hsl(78.1578947368, 58.4615384615%, 84.5098039216%);}#mermaid-0 .relationshipLabelBox rect{opacity:0.5;}#mermaid-0 .relationshipLine{stroke:#000000;}#mermaid-0 .entityTitleText{text-anchor:middle;font-size:18px;fill:#000000;}#mermaid-0 :root{--mermaid-font-family:"trebuchet ms",verdana,arial,sans-serif;}</style><g/><defs><marker orient="auto" markerHeight="18" markerWidth="18" refY="9" refX="0" id="ONLY_ONE_START"><path d="M9,0 L9,18 M15,0 L15,18" fill="none" stroke="gray"/></marker></defs><defs><marker orient="auto" markerHeight="18" markerWidth="18" refY="9" refX="18" id="ONLY_ONE_END"><path d="M3,0 L3,18 M9,0 L9,18" fill="none" stroke="gray"/></marker></defs><defs><marker orient="auto" markerHeight="18" markerWidth="30" refY="9" refX="0" id="ZERO_OR_ONE_START"><circle r="6" cy="9" cx="21" fill="white" stroke="gray"/><path d="M9,0 L9,18" fill="none" stroke="gray"/></marker></defs><defs><marker orient="auto" markerHeight="18" markerWidth="30" refY="9" refX="30" id="ZERO_OR_ONE_END"><circle r="6" cy="9" cx="9" fill="white" stroke="gray"/><path d="M21,0 L21,18" fill="none" stroke="gray"/></marker></defs><defs><marker orient="auto" markerHeight="36" markerWidth="45" refY="18" refX="18" id="ONE_OR_MORE_START"><path d="M0,18 Q 18,0 36,18 Q 18,36 0,18 M42,9 L42,27" fill="none" stroke="gray"/></marker></defs><defs><marker orient="auto" markerHeight="36" markerWidth="45" refY="18" refX="27" id="ONE_OR_MORE_END"><path d="M3,9 L3,27 M9,18 Q27,0 45,18 Q27,36 9,18" fill="none" stroke="gray"/></marker></defs><defs><marker orient="auto" markerHeight="36" markerWidth="57" refY="18" refX="18" id="ZERO_OR_MORE_START"><circle r="6" cy="18" cx="48" fill="white" stroke="gray"/><path d="M0,18 Q18,0 36,18 Q18,36 0,18" fill="none" stroke="gray"/></marker></defs><defs><marker orient="auto" markerHeight="36" markerWidth="57" refY="18" refX="39" id="ZERO_OR_MORE_END"><circle r="6" cy="18" cx="9" fill="white" stroke="gray"/><path d="M21,18 Q39,0 57,18 Q39,36 21,18" fill="none" stroke="gray"/></marker></defs><g transform="translate(20,20 )" id="entity-doc-e255be4d-f056-5998-9a1e-7f40d45f71f9"><rect height="288" width="220.63052368164062" y="0" x="0" class="er entityBox"/><text style="dominant-baseline: middle; text-anchor: middle; font-size: 12px;" transform="translate(110.31526184082031,12)" y="0" x="0" id="text-entity-doc-e255be4d-f056-5998-9a1e-7f40d45f71f9" class="er entityLabel">doc</text><rect height="22" width="54.095550537109375" y="24" x="0" class="er attributeBoxOdd"/><text style="dominant-baseline: middle; font-size: 10.2px;" transform="translate(5,35)" y="0" x="0" id="text-entity-doc-e255be4d-f056-5998-9a1e-7f40d45f71f9-attr-1-type" class="er entityLabel">String</text><rect height="22" width="96.63475036621094" y="24" x="54.095550537109375" class="er attributeBoxOdd"/><text style="dominant-baseline: middle; font-size: 10.2px;" transform="translate(59.095550537109375,35)" y="0" x="0" id="text-entity-doc-e255be4d-f056-5998-9a1e-7f40d45f71f9-attr-1-name" class="er entityLabel">document_number</text><rect height="22" width="22.68768310546875" y="24" x="150.7303009033203" class="er attributeBoxOdd"/><text style="dominant-baseline: middle; font-size: 10.2px;" transform="translate(155.7303009033203,35)" y="0" x="0" id="text-entity-doc-e255be4d-f056-5998-9a1e-7f40d45f71f9-attr-1-key" class="er entityLabel">PK</text><rect height="22" width="47.21253967285156" y="24" x="173.41798400878906" class="er attributeBoxOdd"/><text style="dominant-baseline: middle; font-size: 10.2px;" transform="translate(178.41798400878906,35)" y="0" x="0" id="text-entity-doc-e255be4d-f056-5998-9a1e-7f40d45f71f9-attr-1-comment" class="er entityLabel"/><rect height="22" width="54.095550537109375" y="46" x="0" class="er attributeBoxEven"/><text style="dominant-baseline: middle; font-size: 10.2px;" transform="translate(5,57)" y="0" x="0" id="text-entity-doc-e255be4d-f056-5998-9a1e-7f40d45f71f9-attr-2-type" class="er entityLabel">String</text><rect height="22" width="96.63475036621094" y="46" x="54.095550537109375" class="er attributeBoxEven"/><text style="dominant-baseline: middle; font-size: 10.2px;" transform="translate(59.095550537109375,57)" y="0" x="0" id="text-entity-doc-e255be4d-f056-5998-9a1e-7f40d45f71f9-attr-2-name" class="er entityLabel">document_order</text><rect height="22" width="22.68768310546875" y="46" x="150.7303009033203" class="er attributeBoxEven"/><text style="dominant-baseline: middle; font-size: 10.2px;" transform="translate(155.7303009033203,57)" y="0" x="0" id="text-entity-doc-e255be4d-f056-5998-9a1e-7f40d45f71f9-attr-2-key" class="er entityLabel"/><rect height="22" width="47.21253967285156" y="46" x="173.41798400878906" class="er attributeBoxEven"/><text style="dominant-baseline: middle; font-size: 10.2px;" transform="translate(178.41798400878906,57)" y="0" x="0" id="text-entity-doc-e255be4d-f056-5998-9a1e-7f40d45f71f9-attr-2-comment" class="er entityLabel">nullable</text><rect height="22" width="54.095550537109375" y="68" x="0" class="er attributeBoxOdd"/><text style="dominant-baseline: middle; font-size: 10.2px;" transform="translate(5,79)" y="0" x="0" id="text-entity-doc-e255be4d-f056-5998-9a1e-7f40d45f71f9-attr-3-type" class="er entityLabel">String</text><rect height="22" width="96.63475036621094" y="68" x="54.095550537109375" class="er attributeBoxOdd"/><text style="dominant-baseline: middle; font-size: 10.2px;" transform="translate(59.095550537109375,79)" y="0" x="0" id="text-entity-doc-e255be4d-f056-5998-9a1e-7f40d45f71f9-attr-3-name" class="er entityLabel">document_type</text><rect height="22" width="22.68768310546875" y="68" x="150.7303009033203" class="er attributeBoxOdd"/><text style="dominant-baseline: middle; font-size: 10.2px;" transform="translate(155.7303009033203,79)" y="0" x="0" id="text-entity-doc-e255be4d-f056-5998-9a1e-7f40d45f71f9-attr-3-key" class="er entityLabel"/><rect height="22" width="47.21253967285156" y="68" x="173.41798400878906" class="er attributeBoxOdd"/><text style="dominant-baseline: middle; font-size: 10.2px;" transform="translate(178.41798400878906,79)" y="0" x="0" id="text-entity-doc-e255be4d-f056-5998-9a1e-7f40d45f71f9-attr-3-comment" class="er entityLabel">nullable</text><rect height="22" width="54.095550537109375" y="90" x="0" class="er attributeBoxEven"/><text style="dominant-baseline: middle; font-size: 10.2px;" transform="translate(5,101)" y="0" x="0" id="text-entity-doc-e255be4d-f056-5998-9a1e-7f40d45f71f9-attr-4-type" class="er entityLabel">DateTime</text><rect height="22" width="96.63475036621094" y="90" x="54.095550537109375" class="er attributeBoxEven"/><text style="dominant-baseline: middle; font-size: 10.2px;" transform="translate(59.095550537109375,101)" y="0" x="0" id="text-entity-doc-e255be4d-f056-5998-9a1e-7f40d45f71f9-attr-4-name" class="er entityLabel">date_destiny</text><rect height="22" width="22.68768310546875" y="90" x="150.7303009033203" class="er attributeBoxEven"/><text style="dominant-baseline: middle; font-size: 10.2px;" transform="translate(155.7303009033203,101)" y="0" x="0" id="text-entity-doc-e255be4d-f056-5998-9a1e-7f40d45f71f9-attr-4-key" class="er entityLabel"/><rect height="22" width="47.21253967285156" y="90" x="173.41798400878906" class="er attributeBoxEven"/><text style="dominant-baseline: middle; font-size: 10.2px;" transform="translate(178.41798400878906,101)" y="0" x="0" id="text-entity-doc-e255be4d-f056-5998-9a1e-7f40d45f71f9-attr-4-comment" class="er entityLabel">nullable</text><rect height="22" width="54.095550537109375" y="112" x="0" class="er attributeBoxOdd"/><text style="dominant-baseline: middle; font-size: 10.2px;" transform="translate(5,123)" y="0" x="0" id="text-entity-doc-e255be4d-f056-5998-9a1e-7f40d45f71f9-attr-5-type" class="er entityLabel">DateTime</text><rect height="22" width="96.63475036621094" y="112" x="54.095550537109375" class="er attributeBoxOdd"/><text style="dominant-baseline: middle; font-size: 10.2px;" transform="translate(59.095550537109375,123)" y="0" x="0" id="text-entity-doc-e255be4d-f056-5998-9a1e-7f40d45f71f9-attr-5-name" class="er entityLabel">date_return</text><rect height="22" width="22.68768310546875" y="112" x="150.7303009033203" class="er attributeBoxOdd"/><text style="dominant-baseline: middle; font-size: 10.2px;" transform="translate(155.7303009033203,123)" y="0" x="0" id="text-entity-doc-e255be4d-f056-5998-9a1e-7f40d45f71f9-attr-5-key" class="er entityLabel"/><rect height="22" width="47.21253967285156" y="112" x="173.41798400878906" class="er attributeBoxOdd"/><text style="dominant-baseline: middle; font-size: 10.2px;" transform="translate(178.41798400878906,123)" y="0" x="0" id="text-entity-doc-e255be4d-f056-5998-9a1e-7f40d45f71f9-attr-5-comment" class="er entityLabel">nullable</text><rect height="22" width="54.095550537109375" y="134" x="0" class="er attributeBoxEven"/><text style="dominant-baseline: middle; font-size: 10.2px;" transform="translate(5,145)" y="0" x="0" id="text-entity-doc-e255be4d-f056-5998-9a1e-7f40d45f71f9-attr-6-type" class="er entityLabel">String</text><rect height="22" width="96.63475036621094" y="134" x="54.095550537109375" class="er attributeBoxEven"/><text style="dominant-baseline: middle; font-size: 10.2px;" transform="translate(59.095550537109375,145)" y="0" x="0" id="text-entity-doc-e255be4d-f056-5998-9a1e-7f40d45f71f9-attr-6-name" class="er entityLabel">key_word</text><rect height="22" width="22.68768310546875" y="134" x="150.7303009033203" class="er attributeBoxEven"/><text style="dominant-baseline: middle; font-size: 10.2px;" transform="translate(155.7303009033203,145)" y="0" x="0" id="text-entity-doc-e255be4d-f056-5998-9a1e-7f40d45f71f9-attr-6-key" class="er entityLabel"/><rect height="22" width="47.21253967285156" y="134" x="173.41798400878906" class="er attributeBoxEven"/><text style="dominant-baseline: middle; font-size: 10.2px;" transform="translate(178.41798400878906,145)" y="0" x="0" id="text-entity-doc-e255be4d-f056-5998-9a1e-7f40d45f71f9-attr-6-comment" class="er entityLabel">nullable</text><rect height="22" width="54.095550537109375" y="156" x="0" class="er attributeBoxOdd"/><text style="dominant-baseline: middle; font-size: 10.2px;" transform="translate(5,167)" y="0" x="0" id="text-entity-doc-e255be4d-f056-5998-9a1e-7f40d45f71f9-attr-7-type" class="er entityLabel">String</text><rect height="22" width="96.63475036621094" y="156" x="54.095550537109375" class="er attributeBoxOdd"/><text style="dominant-baseline: middle; font-size: 10.2px;" transform="translate(59.095550537109375,167)" y="0" x="0" id="text-entity-doc-e255be4d-f056-5998-9a1e-7f40d45f71f9-attr-7-name" class="er entityLabel">subject</text><rect height="22" width="22.68768310546875" y="156" x="150.7303009033203" class="er attributeBoxOdd"/><text style="dominant-baseline: middle; font-size: 10.2px;" transform="translate(155.7303009033203,167)" y="0" x="0" id="text-entity-doc-e255be4d-f056-5998-9a1e-7f40d45f71f9-attr-7-key" class="er entityLabel"/><rect height="22" width="47.21253967285156" y="156" x="173.41798400878906" class="er attributeBoxOdd"/><text style="dominant-baseline: middle; font-size: 10.2px;" transform="translate(178.41798400878906,167)" y="0" x="0" id="text-entity-doc-e255be4d-f056-5998-9a1e-7f40d45f71f9-attr-7-comment" class="er entityLabel">nullable</text><rect height="22" width="54.095550537109375" y="178" x="0" class="er attributeBoxEven"/><text style="dominant-baseline: middle; font-size: 10.2px;" transform="translate(5,189)" y="0" x="0" id="text-entity-doc-e255be4d-f056-5998-9a1e-7f40d45f71f9-attr-8-type" class="er entityLabel">String</text><rect height="22" width="96.63475036621094" y="178" x="54.095550537109375" class="er attributeBoxEven"/><text style="dominant-baseline: middle; font-size: 10.2px;" transform="translate(59.095550537109375,189)" y="0" x="0" id="text-entity-doc-e255be4d-f056-5998-9a1e-7f40d45f71f9-attr-8-name" class="er entityLabel">section</text><rect height="22" width="22.68768310546875" y="178" x="150.7303009033203" class="er attributeBoxEven"/><text style="dominant-baseline: middle; font-size: 10.2px;" transform="translate(155.7303009033203,189)" y="0" x="0" id="text-entity-doc-e255be4d-f056-5998-9a1e-7f40d45f71f9-attr-8-key" class="er entityLabel"/><rect height="22" width="47.21253967285156" y="178" x="173.41798400878906" class="er attributeBoxEven"/><text style="dominant-baseline: middle; font-size: 10.2px;" transform="translate(178.41798400878906,189)" y="0" x="0" id="text-entity-doc-e255be4d-f056-5998-9a1e-7f40d45f71f9-attr-8-comment" class="er entityLabel">nullable</text><rect height="22" width="54.095550537109375" y="200" x="0" class="er attributeBoxOdd"/><text style="dominant-baseline: middle; font-size: 10.2px;" transform="translate(5,211)" y="0" x="0" id="text-entity-doc-e255be4d-f056-5998-9a1e-7f40d45f71f9-attr-9-type" class="er entityLabel">String</text><rect height="22" width="96.63475036621094" y="200" x="54.095550537109375" class="er attributeBoxOdd"/><text style="dominant-baseline: middle; font-size: 10.2px;" transform="translate(59.095550537109375,211)" y="0" x="0" id="text-entity-doc-e255be4d-f056-5998-9a1e-7f40d45f71f9-attr-9-name" class="er entityLabel">destiny</text><rect height="22" width="22.68768310546875" y="200" x="150.7303009033203" class="er attributeBoxOdd"/><text style="dominant-baseline: middle; font-size: 10.2px;" transform="translate(155.7303009033203,211)" y="0" x="0" id="text-entity-doc-e255be4d-f056-5998-9a1e-7f40d45f71f9-attr-9-key" class="er entityLabel"/><rect height="22" width="47.21253967285156" y="200" x="173.41798400878906" class="er attributeBoxOdd"/><text style="dominant-baseline: middle; font-size: 10.2px;" transform="translate(178.41798400878906,211)" y="0" x="0" id="text-entity-doc-e255be4d-f056-5998-9a1e-7f40d45f71f9-attr-9-comment" class="er entityLabel">nullable</text><rect height="22" width="54.095550537109375" y="222" x="0" class="er attributeBoxEven"/><text style="dominant-baseline: middle; font-size: 10.2px;" transform="translate(5,233)" y="0" x="0" id="text-entity-doc-e255be4d-f056-5998-9a1e-7f40d45f71f9-attr-10-type" class="er entityLabel">String</text><rect height="22" width="96.63475036621094" y="222" x="54.095550537109375" class="er attributeBoxEven"/><text style="dominant-baseline: middle; font-size: 10.2px;" transform="translate(59.095550537109375,233)" y="0" x="0" id="text-entity-doc-e255be4d-f056-5998-9a1e-7f40d45f71f9-attr-10-name" class="er entityLabel">return</text><rect height="22" width="22.68768310546875" y="222" x="150.7303009033203" class="er attributeBoxEven"/><text style="dominant-baseline: middle; font-size: 10.2px;" transform="translate(155.7303009033203,233)" y="0" x="0" id="text-entity-doc-e255be4d-f056-5998-9a1e-7f40d45f71f9-attr-10-key" class="er entityLabel"/><rect height="22" width="47.21253967285156" y="222" x="173.41798400878906" class="er attributeBoxEven"/><text style="dominant-baseline: middle; font-size: 10.2px;" transform="translate(178.41798400878906,233)" y="0" x="0" id="text-entity-doc-e255be4d-f056-5998-9a1e-7f40d45f71f9-attr-10-comment" class="er entityLabel">nullable</text><rect height="22" width="54.095550537109375" y="244" x="0" class="er attributeBoxOdd"/><text style="dominant-baseline: middle; font-size: 10.2px;" transform="translate(5,255)" y="0" x="0" id="text-entity-doc-e255be4d-f056-5998-9a1e-7f40d45f71f9-attr-11-type" class="er entityLabel">DateTime</text><rect height="22" width="96.63475036621094" y="244" x="54.095550537109375" class="er attributeBoxOdd"/><text style="dominant-baseline: middle; font-size: 10.2px;" transform="translate(59.095550537109375,255)" y="0" x="0" id="text-entity-doc-e255be4d-f056-5998-9a1e-7f40d45f71f9-attr-11-name" class="er entityLabel">created_at</text><rect height="22" width="22.68768310546875" y="244" x="150.7303009033203" class="er attributeBoxOdd"/><text style="dominant-baseline: middle; font-size: 10.2px;" transform="translate(155.7303009033203,255)" y="0" x="0" id="text-entity-doc-e255be4d-f056-5998-9a1e-7f40d45f71f9-attr-11-key" class="er entityLabel"/><rect height="22" width="47.21253967285156" y="244" x="173.41798400878906" class="er attributeBoxOdd"/><text style="dominant-baseline: middle; font-size: 10.2px;" transform="translate(178.41798400878906,255)" y="0" x="0" id="text-entity-doc-e255be4d-f056-5998-9a1e-7f40d45f71f9-attr-11-comment" class="er entityLabel"/><rect height="22" width="54.095550537109375" y="266" x="0" class="er attributeBoxEven"/><text style="dominant-baseline: middle; font-size: 10.2px;" transform="translate(5,277)" y="0" x="0" id="text-entity-doc-e255be4d-f056-5998-9a1e-7f40d45f71f9-attr-12-type" class="er entityLabel">DateTime</text><rect height="22" width="96.63475036621094" y="266" x="54.095550537109375" class="er attributeBoxEven"/><text style="dominant-baseline: middle; font-size: 10.2px;" transform="translate(59.095550537109375,277)" y="0" x="0" id="text-entity-doc-e255be4d-f056-5998-9a1e-7f40d45f71f9-attr-12-name" class="er entityLabel">updated_at</text><rect height="22" width="22.68768310546875" y="266" x="150.7303009033203" class="er attributeBoxEven"/><text style="dominant-baseline: middle; font-size: 10.2px;" transform="translate(155.7303009033203,277)" y="0" x="0" id="text-entity-doc-e255be4d-f056-5998-9a1e-7f40d45f71f9-attr-12-key" class="er entityLabel"/><rect height="22" width="47.21253967285156" y="266" x="173.41798400878906" class="er attributeBoxEven"/><text style="dominant-baseline: middle; font-size: 10.2px;" transform="translate(178.41798400878906,277)" y="0" x="0" id="text-entity-doc-e255be4d-f056-5998-9a1e-7f40d45f71f9-attr-12-comment" class="er entityLabel">nullable</text></g></svg>